<?xml version="1.0" encoding="UTF-8" standalone="no"?>
<svg
   xmlns:dc="http://purl.org/dc/elements/1.1/"
   xmlns:cc="http://creativecommons.org/ns#"
   xmlns:rdf="http://www.w3.org/1999/02/22-rdf-syntax-ns#"
   xmlns:svg="http://www.w3.org/2000/svg"
   xmlns="http://www.w3.org/2000/svg"
   xmlns:sodipodi="http://sodipodi.sourceforge.net/DTD/sodipodi-0.dtd"
   xmlns:inkscape="http://www.inkscape.org/namespaces/inkscape"
   sodipodi:docname="logo.svg"
   inkscape:version="1.0 (4035a4fb49, 2020-05-01)"
   id="svg8"
   version="1.1"
   viewBox="0 0 170.20885 170.52234"
   height="170.52234mm"
   width="170.20885mm">
  <defs
     id="defs2" />
  <sodipodi:namedview
     inkscape:window-maximized="0"
     inkscape:window-y="22"
     inkscape:window-x="0"
     inkscape:window-height="1030"
     inkscape:window-width="1920"
     showgrid="false"
     inkscape:document-rotation="0"
     inkscape:current-layer="layer1"
     inkscape:document-units="mm"
     inkscape:cy="655.99304"
     inkscape:cx="-195.42609"
     inkscape:zoom="0.46570064"
     inkscape:pageshadow="2"
     inkscape:pageopacity="0.0"
     borderopacity="1.0"
     bordercolor="#666666"
     pagecolor="#ffffff"
     id="base" />
  <metadata
     id="metadata5">
    <rdf:RDF>
      <cc:Work
         rdf:about="">
        <dc:format>image/svg+xml</dc:format>
        <dc:type
           rdf:resource="http://purl.org/dc/dcmitype/StillImage" />
        <dc:title></dc:title>
      </cc:Work>
    </rdf:RDF>
  </metadata>
  <g
     transform="translate(-16.52571,-62.116312)"
     id="layer1"
     inkscape:groupmode="layer"
     inkscape:label="Layer 1">
    <path
       style="fill:#d4aa00;stroke-width:0.352778"
       d="m 93.95401,232.31386 c -23.963368,-2.27387 -46.050197,-14.47881 -60.051207,-33.1836 -7.77484,-10.3869 -12.17523,-19.63927 -15.24398,-32.05239 -1.80624,-7.30627 -2.13917,-10.44481 -2.13303,-20.10833 0.006,-9.68578 0.40466,-13.07531 2.47447,-21.04649 7.04594,-27.135056 26.81588,-48.985686 53.257909,-58.863016 4.394421,-1.64152 11.435431,-3.43609 16.756951,-4.27089 5.713247,-0.89627 19.322587,-0.89728 25.047227,-0.002 18.55375,2.90205 34.68967,11.11641 47.81044,24.33899 2.72137,2.74249 6.08092,6.50087 7.4657,8.35197 11.44493,15.299076 17.39607,32.885516 17.39607,51.407816 0,5.94281 -0.73192,13.61364 -1.691,17.72238 l -0.61761,2.64583 -3.41102,0.10072 c -6.54185,0.19316 -10.66434,-1.44864 -15.27065,-6.0816 -4.00814,-4.03136 -5.80633,-8.11052 -5.8327,-13.23143 -0.09,-17.47851 -6.75661,-32.53284 -19.50166,-44.03807 -10.27317,-9.273796 -22.45666,-14.243196 -36.22535,-14.775586 -18.567537,-0.71795 -34.406138,6.16202 -46.674868,20.274606 -6.703689,7.71119 -10.965589,16.28067 -12.992549,26.1244 -1.03023,5.00321 -1.27843,14.84259 -0.50858,20.16168 1.84523,12.74913 6.61827,22.42412 15.721589,31.8678 4.72995,4.9068 9.91082,8.81202 15.448,11.64436 4.988551,2.55171 6.738361,3.2193 11.664631,4.45038 11.787157,2.94561 24.694247,2.24532 35.905017,-1.94808 4.81804,-1.80219 11.84974,-5.98439 15.9584,-9.49147 1.02964,-0.8789 1.92553,-1.59799 1.99086,-1.59799 0.0653,0 0.96518,0.72342 1.99967,1.60758 5.12591,4.38108 12.41545,8.44875 18.72531,10.44901 1.89216,0.59983 3.4403,1.23761 3.4403,1.41729 0,0.56601 -3.55676,4.1312 -7.58472,7.60271 -7.41851,6.39365 -16.5523,11.82814 -25.92,15.42208 -11.27712,4.32649 -25.34647,6.24531 -37.40362,5.10121 z m -1.884197,-33.49251 c -10.52146,-1.90211 -18.737871,-6.21355 -26.810961,-14.06864 -8.8079,-8.57007 -14.016199,-18.80015 -15.374499,-30.19845 -2.4326,-20.41336 5.50492,-38.37322 22.255619,-50.35676 9.115531,-6.521296 19.728321,-9.476156 32.220988,-8.971096 13.67883,0.55301 24.96927,5.772396 34.9263,16.145876 9.38089,9.77325 13.70966,20.0522 14.47107,34.36254 0.35259,6.62673 0.93559,9.32069 2.86129,13.22158 1.40477,2.84565 2.15487,3.84757 5.03491,6.72522 5.1016,5.09739 9.89592,7.26927 16.88878,7.6508 1.99475,0.10884 3.71152,0.33496 3.81506,0.50249 0.30246,0.48938 -2.19651,6.82895 -4.45097,11.29156 -2.31903,4.59041 -4.24937,7.86061 -6.57799,11.14376 -1.81169,2.55433 -2.03036,2.60731 -6.10263,1.47883 -7.86513,-2.17954 -14.90955,-6.30833 -21.66596,-12.69858 l -2.86375,-2.70855 -3.15529,2.95162 c -7.46286,6.98116 -15.3034,11.19883 -24.53776,13.19964 -5.32032,1.15275 -15.49114,1.31219 -20.934207,0.32816 z M 105.4516,173.04828 c 5.04447,-0.70163 9.29861,-2.71751 13.23797,-6.27301 3.80623,-3.43534 6.3843,-7.69964 7.94558,-13.14254 0.83869,-2.92384 0.90724,-3.61327 0.72841,-7.32662 -0.22844,-4.7436 -0.90488,-7.22333 -3.06071,-11.22008 -3.33437,-6.18171 -9.57634,-11.15235 -16.09996,-12.82081 -3.31152,-0.84695 -9.49797,-0.9321 -12.7087,-0.17493 -7.802507,1.84003 -15.211807,8.37171 -18.217637,16.05981 -2.429731,6.21457 -2.058381,14.81443 0.89115,20.63749 1.23249,2.43322 3.73231,5.68971 5.9285,7.72299 5.92551,5.48597 13.107987,7.6848 21.355397,6.5377 z m -7.79343,-5.97817 c -7.444797,-1.49432 -14.091957,-8.05136 -15.655877,-15.44363 -1.585,-7.49188 1.11687,-14.86566 7.27349,-19.85037 4.104217,-3.32298 7.486267,-4.35971 13.520577,-4.14456 3.93297,0.14023 4.21758,0.20387 7.06467,1.57968 3.4904,1.6867 5.72289,3.56877 7.97214,6.7208 4.16446,5.83597 4.79764,13.90242 1.6089,20.49681 -1.29551,2.67914 -5.91129,7.31627 -8.76394,8.80447 -3.73079,1.94631 -8.86547,2.67069 -13.01996,1.8368 z"
       id="path100" />
    <path
       style="fill:#806600;stroke-width:0.352778"
       d="m 131.22597,186.06783 c -3.72549,-4.46643 -8.61606,-13.14151 -10.17415,-18.0473 -0.6853,-2.15774 -0.85765,-1.67942 2.19101,-6.08078 1.5484,-2.23543 2.15409,-3.47762 3.84546,-7.88651 0.19268,-0.50226 0.45095,0.28165 0.89639,2.72077 1.5358,8.40967 5.4069,16.94777 10.33768,22.8008 0.71015,0.84298 1.29118,1.72763 1.29118,1.9659 0,0.62077 -5.80489,6.20281 -6.45044,6.20281 -0.29668,0 -1.16839,-0.75406 -1.93713,-1.67569 z"
       id="path90" />
  </g>
</svg>
